# xmcd
# 
# Track frame offsets:
#     150
#     6933
#     14980
#     22961
#     29065
#     37933
#     46343
#     54429
#     63670
#     70279
# 
# Disc length: 1106
# 
# Revision: 1
# Processed by: cddbd v1.5.2PL0 Copyright (c) Steve Scherf et al.
# Submitted via: fre:ac v1.0.17
# 
DISCID=8804500a
DTITLE=Cub Scouts - Cub Scout Songbook
DYEAR=2004
DGENRE=Children
TTITLE0=Do Your Best
TTITLE1=Cub Scout Marching Song
TTITLE2=Do Your Ears Hang Low
TTITLE3=Muffin Man
TTITLE4=Have You Ever Been To Day Camp?
TTITLE5=The______ Went Over The Mountain
TTITLE6=No Bananas in the Sky
TTITLE7=Old Akela had a pack
TTITLE8=5 Little Tigers
TTITLE9=Cub Scout Vespers
EXTD=YEAR: 2004
EXTT0=
EXTT1=
EXTT2=
EXTT3=
EXTT4=
EXTT5=
EXTT6=
EXTT7=
EXTT8=
EXTT9=
PLAYORDER=
